<svg xmlns="http://www.w3.org/2000/svg" xmlns:xlink="http://www.w3.org/1999/xlink" contentStyleType="text/css" data-diagram-type="CLASS" height="357px" preserveAspectRatio="none" style="width:520px;height:357px;background:#FFFFFF;" version="1.1" viewBox="0 0 520 357" width="520px" zoomAndPan="magnify"><defs/><g><!--cluster MarcoConsiglio--><g class="cluster" data-entity="MarcoConsiglio" data-source-line="17" data-uid="ent0005" id="cluster_MarcoConsiglio"><path d="M160.5,4 L281.9287,4 A3.75,3.75 0 0 1 284.4287,6.5 L291.4287,26.2969 L510.5,26.2969 A2.5,2.5 0 0 1 513,28.7969 L513,347.5 A2.5,2.5 0 0 1 510.5,350 L160.5,350 A2.5,2.5 0 0 1 158,347.5 L158,6.5 A2.5,2.5 0 0 1 160.5,4" fill="none" style="stroke:#000000;stroke-width:1.5;"/><line style="stroke:#000000;stroke-width:1.5;" x1="158" x2="291.4287" y1="26.2969" y2="26.2969"/><text fill="#000000" font-family="sans-serif" font-size="14" font-weight="bold" lengthAdjust="spacing" textLength="120.4287" x="162" y="18.9951">MarcoConsiglio</text></g><!--cluster BCMathExtended--><g class="cluster" data-entity="BCMathExtended" data-source-line="16" data-uid="ent0003" id="cluster_BCMathExtended"><path d="M168.5,31 L304.7695,31 A3.75,3.75 0 0 1 307.2695,33.5 L314.2695,53.2969 L502.5,53.2969 A2.5,2.5 0 0 1 505,55.7969 L505,339.5 A2.5,2.5 0 0 1 502.5,342 L168.5,342 A2.5,2.5 0 0 1 166,339.5 L166,33.5 A2.5,2.5 0 0 1 168.5,31" fill="none" style="stroke:#000000;stroke-width:1.5;"/><line style="stroke:#000000;stroke-width:1.5;" x1="166" x2="314.2695" y1="53.2969" y2="53.2969"/><text fill="#000000" font-family="sans-serif" font-size="14" font-weight="bold" lengthAdjust="spacing" textLength="135.2695" x="170" y="45.9951">BCMathExtended</text></g><!--cluster Interfaces--><g class="cluster" data-entity="Interfaces" data-source-line="28" data-uid="ent0009" id="cluster_Interfaces"><path d="M214,58 L294.9326,58 A3.75,3.75 0 0 1 297.4326,60.5 L304.4326,80.2969 L307,80.2969 A2.5,2.5 0 0 1 309.5,82.7969 L309.5,122.5 A2.5,2.5 0 0 1 307,125 L214,125 A2.5,2.5 0 0 1 211.5,122.5 L211.5,60.5 A2.5,2.5 0 0 1 214,58" fill="none" style="stroke:#000000;stroke-width:1.5;"/><line style="stroke:#000000;stroke-width:1.5;" x1="211.5" x2="304.4326" y1="80.2969" y2="80.2969"/><text fill="#000000" font-family="sans-serif" font-size="14" font-weight="bold" lengthAdjust="spacing" textLength="79.9326" x="215.5" y="72.9951">Interfaces</text></g><!--cluster Builders--><g class="cluster" data-entity="Builders" data-source-line="32" data-uid="ent0011" id="cluster_Builders"><path d="M369.5,58 L435.4893,58 A3.75,3.75 0 0 1 437.9893,60.5 L444.9893,80.2969 L494.5,80.2969 A2.5,2.5 0 0 1 497,82.7969 L497,272.5 A2.5,2.5 0 0 1 494.5,275 L369.5,275 A2.5,2.5 0 0 1 367,272.5 L367,60.5 A2.5,2.5 0 0 1 369.5,58" fill="none" style="stroke:#000000;stroke-width:1.5;"/><line style="stroke:#000000;stroke-width:1.5;" x1="367" x2="444.9893" y1="80.2969" y2="80.2969"/><text fill="#000000" font-family="sans-serif" font-size="14" font-weight="bold" lengthAdjust="spacing" textLength="64.9893" x="371" y="72.9951">Builders</text></g><!--cluster Exceptions--><g class="cluster" data-entity="Exceptions" data-source-line="50" data-uid="ent0021" id="cluster_Exceptions"><path d="M176.5,175 L263.3184,175 A3.75,3.75 0 0 1 265.8184,177.5 L272.8184,197.2969 L344.5,197.2969 A2.5,2.5 0 0 1 347,199.7969 L347,239.5 A2.5,2.5 0 0 1 344.5,242 L176.5,242 A2.5,2.5 0 0 1 174,239.5 L174,177.5 A2.5,2.5 0 0 1 176.5,175" fill="none" style="stroke:#000000;stroke-width:1.5;"/><line style="stroke:#000000;stroke-width:1.5;" x1="174" x2="272.8184" y1="197.2969" y2="197.2969"/><text fill="#000000" font-family="sans-serif" font-size="14" font-weight="bold" lengthAdjust="spacing" textLength="85.8184" x="178" y="189.9951">Exceptions</text></g><!--class Stringable__class--><g class="entity" data-entity="Stringable__class" data-source-line="14" data-uid="ent0002" id="entity_Stringable__class"><rect fill="#F1F1F1" height="40.2656" rx="2.5" ry="2.5" style="stroke:#181818;stroke-width:0.5;" width="103.75" x="24" y="131"/><ellipse cx="39" cy="151.1328" fill="#B4A7E5" rx="11" ry="11" style="stroke:#181818;stroke-width:1;"/><path d="M34.9219,146.8984 L34.9219,144.7422 L42.3125,144.7422 L42.3125,146.8984 L39.8438,146.8984 L39.8438,154.9766 L42.3125,154.9766 L42.3125,157.1328 L34.9219,157.1328 L34.9219,154.9766 L37.3906,154.9766 L37.3906,146.8984 L34.9219,146.8984 Z " fill="#000000"/><text fill="#000000" font-family="sans-serif" font-size="12" font-style="italic" lengthAdjust="spacing" textLength="64.4824" x="56.6338" y="147.1387">&#171;external&#187;</text><text fill="#000000" font-family="sans-serif" font-size="14" font-style="italic" lengthAdjust="spacing" textLength="71.75" x="53" y="162.9639">Stringable</text></g><!--class ArithmeticError__class--><g class="entity" data-entity="ArithmeticError__class" data-source-line="48" data-uid="ent0020" id="entity_ArithmeticError__class"><rect fill="#F1F1F1" height="40.2656" rx="2.5" ry="2.5" style="stroke:#181818;stroke-width:0.5;" width="139.5908" x="6" y="198"/><ellipse cx="21" cy="218.1328" fill="#ADD1B2" rx="11" ry="11" style="stroke:#181818;stroke-width:1;"/><path d="M23.9688,223.7734 Q23.3906,224.0703 22.75,224.2109 Q22.1094,224.3672 21.4063,224.3672 Q18.9063,224.3672 17.5781,222.7266 Q16.2656,221.0703 16.2656,217.9453 Q16.2656,214.8203 17.5781,213.1641 Q18.9063,211.5078 21.4063,211.5078 Q22.1094,211.5078 22.75,211.6641 Q23.4063,211.8203 23.9688,212.1172 L23.9688,214.8359 Q23.3438,214.2578 22.75,213.9922 Q22.1563,213.7109 21.5313,213.7109 Q20.1875,213.7109 19.5,214.7891 Q18.8125,215.8516 18.8125,217.9453 Q18.8125,220.0391 19.5,221.1172 Q20.1875,222.1797 21.5313,222.1797 Q22.1563,222.1797 22.75,221.9141 Q23.3438,221.6328 23.9688,221.0547 L23.9688,223.7734 Z " fill="#000000"/><text fill="#000000" font-family="sans-serif" font-size="12" font-style="italic" lengthAdjust="spacing" textLength="64.4824" x="56.5542" y="214.1387">&#171;external&#187;</text><text fill="#000000" font-family="sans-serif" font-size="14" lengthAdjust="spacing" textLength="107.5908" x="35" y="229.9639">ArithmeticError</text></g><!--class Number__class--><g class="entity" data-entity="Number__class" data-source-line="17" data-uid="ent0004" id="entity_Number__class"><rect fill="#F1F1F1" height="32" rx="2.5" ry="2.5" style="stroke:#181818;stroke-width:0.5;" width="88.2393" x="216.5" y="135"/><ellipse cx="231.5" cy="151" fill="#ADD1B2" rx="11" ry="11" style="stroke:#181818;stroke-width:1;"/><path d="M234.4688,156.6406 Q233.8906,156.9375 233.25,157.0781 Q232.6094,157.2344 231.9063,157.2344 Q229.4063,157.2344 228.0781,155.5938 Q226.7656,153.9375 226.7656,150.8125 Q226.7656,147.6875 228.0781,146.0313 Q229.4063,144.375 231.9063,144.375 Q232.6094,144.375 233.25,144.5313 Q233.9063,144.6875 234.4688,144.9844 L234.4688,147.7031 Q233.8438,147.125 233.25,146.8594 Q232.6563,146.5781 232.0313,146.5781 Q230.6875,146.5781 230,147.6563 Q229.3125,148.7188 229.3125,150.8125 Q229.3125,152.9063 230,153.9844 Q230.6875,155.0469 232.0313,155.0469 Q232.6563,155.0469 233.25,154.7813 Q233.8438,154.5 234.4688,153.9219 L234.4688,156.6406 Z " fill="#000000"/><text fill="#000000" font-family="sans-serif" font-size="14" lengthAdjust="spacing" textLength="56.2393" x="245.5" y="155.8467">Number</text></g><!--class Random__class--><g class="entity" data-entity="Random__class" data-source-line="21" data-uid="ent0007" id="entity_Random__class"><rect fill="#F1F1F1" height="32" rx="2.5" ry="2.5" style="stroke:#181818;stroke-width:0.5;" width="90.2695" x="215.5" y="252"/><ellipse cx="230.5" cy="268" fill="#ADD1B2" rx="11" ry="11" style="stroke:#181818;stroke-width:1;"/><path d="M233.4688,273.6406 Q232.8906,273.9375 232.25,274.0781 Q231.6094,274.2344 230.9063,274.2344 Q228.4063,274.2344 227.0781,272.5938 Q225.7656,270.9375 225.7656,267.8125 Q225.7656,264.6875 227.0781,263.0313 Q228.4063,261.375 230.9063,261.375 Q231.6094,261.375 232.25,261.5313 Q232.9063,261.6875 233.4688,261.9844 L233.4688,264.7031 Q232.8438,264.125 232.25,263.8594 Q231.6563,263.5781 231.0313,263.5781 Q229.6875,263.5781 229,264.6563 Q228.3125,265.7188 228.3125,267.8125 Q228.3125,269.9063 229,270.9844 Q229.6875,272.0469 231.0313,272.0469 Q231.6563,272.0469 232.25,271.7813 Q232.8438,271.5 233.4688,270.9219 L233.4688,273.6406 Z " fill="#000000"/><text fill="#000000" font-family="sans-serif" font-size="14" lengthAdjust="spacing" textLength="58.2695" x="244.5" y="272.8467">Random</text></g><!--class Range__class--><g class="entity" data-entity="Range__class" data-source-line="25" data-uid="ent0008" id="entity_Range__class"><rect fill="#F1F1F1" height="32" rx="2.5" ry="2.5" style="stroke:#181818;stroke-width:0.5;" width="76.6797" x="222" y="302"/><ellipse cx="237" cy="318" fill="#ADD1B2" rx="11" ry="11" style="stroke:#181818;stroke-width:1;"/><path d="M239.9688,323.6406 Q239.3906,323.9375 238.75,324.0781 Q238.1094,324.2344 237.4063,324.2344 Q234.9063,324.2344 233.5781,322.5938 Q232.2656,320.9375 232.2656,317.8125 Q232.2656,314.6875 233.5781,313.0313 Q234.9063,311.375 237.4063,311.375 Q238.1094,311.375 238.75,311.5313 Q239.4063,311.6875 239.9688,311.9844 L239.9688,314.7031 Q239.3438,314.125 238.75,313.8594 Q238.1563,313.5781 237.5313,313.5781 Q236.1875,313.5781 235.5,314.6563 Q234.8125,315.7188 234.8125,317.8125 Q234.8125,319.9063 235.5,320.9844 Q236.1875,322.0469 237.5313,322.0469 Q238.1563,322.0469 238.75,321.7813 Q239.3438,321.5 239.9688,320.9219 L239.9688,323.6406 Z " fill="#000000"/><text fill="#000000" font-family="sans-serif" font-size="14" lengthAdjust="spacing" textLength="44.6797" x="251" y="322.8467">Range</text></g><!--class Builder__interface--><g class="entity" data-entity="Builder__interface" data-source-line="29" data-uid="ent0010" id="entity_Builder__interface"><rect fill="#F1F1F1" height="32" rx="2.5" ry="2.5" style="stroke:#181818;stroke-width:0.5;" width="81.5127" x="219.5" y="85"/><ellipse cx="234.5" cy="101" fill="#B4A7E5" rx="11" ry="11" style="stroke:#181818;stroke-width:1;"/><path d="M230.4219,96.7656 L230.4219,94.6094 L237.8125,94.6094 L237.8125,96.7656 L235.3438,96.7656 L235.3438,104.8438 L237.8125,104.8438 L237.8125,107 L230.4219,107 L230.4219,104.8438 L232.8906,104.8438 L232.8906,96.7656 L230.4219,96.7656 Z " fill="#000000"/><text fill="#000000" font-family="sans-serif" font-size="14" font-style="italic" lengthAdjust="spacing" textLength="49.5127" x="248.5" y="105.8467">Builder</text></g><!--class FromFloat__class--><g class="entity" data-entity="FromFloat__class" data-source-line="33" data-uid="ent0012" id="entity_FromFloat__class"><rect fill="#F1F1F1" height="32" rx="2.5" ry="2.5" style="stroke:#181818;stroke-width:0.5;" width="102.5879" x="380.5" y="85"/><ellipse cx="395.5" cy="101" fill="#ADD1B2" rx="11" ry="11" style="stroke:#181818;stroke-width:1;"/><path d="M398.4688,106.6406 Q397.8906,106.9375 397.25,107.0781 Q396.6094,107.2344 395.9063,107.2344 Q393.4063,107.2344 392.0781,105.5938 Q390.7656,103.9375 390.7656,100.8125 Q390.7656,97.6875 392.0781,96.0313 Q393.4063,94.375 395.9063,94.375 Q396.6094,94.375 397.25,94.5313 Q397.9063,94.6875 398.4688,94.9844 L398.4688,97.7031 Q397.8438,97.125 397.25,96.8594 Q396.6563,96.5781 396.0313,96.5781 Q394.6875,96.5781 394,97.6563 Q393.3125,98.7188 393.3125,100.8125 Q393.3125,102.9063 394,103.9844 Q394.6875,105.0469 396.0313,105.0469 Q396.6563,105.0469 397.25,104.7813 Q397.8438,104.5 398.4688,103.9219 L398.4688,106.6406 Z " fill="#000000"/><text fill="#000000" font-family="sans-serif" font-size="14" lengthAdjust="spacing" textLength="70.5879" x="409.5" y="105.8467">FromFloat</text></g><!--class FromInt__class--><g class="entity" data-entity="FromInt__class" data-source-line="37" data-uid="ent0014" id="entity_FromInt__class"><rect fill="#F1F1F1" height="32" rx="2.5" ry="2.5" style="stroke:#181818;stroke-width:0.5;" width="86.5029" x="388.5" y="135"/><ellipse cx="403.5" cy="151" fill="#ADD1B2" rx="11" ry="11" style="stroke:#181818;stroke-width:1;"/><path d="M406.4688,156.6406 Q405.8906,156.9375 405.25,157.0781 Q404.6094,157.2344 403.9063,157.2344 Q401.4063,157.2344 400.0781,155.5938 Q398.7656,153.9375 398.7656,150.8125 Q398.7656,147.6875 400.0781,146.0313 Q401.4063,144.375 403.9063,144.375 Q404.6094,144.375 405.25,144.5313 Q405.9063,144.6875 406.4688,144.9844 L406.4688,147.7031 Q405.8438,147.125 405.25,146.8594 Q404.6563,146.5781 404.0313,146.5781 Q402.6875,146.5781 402,147.6563 Q401.3125,148.7188 401.3125,150.8125 Q401.3125,152.9063 402,153.9844 Q402.6875,155.0469 404.0313,155.0469 Q404.6563,155.0469 405.25,154.7813 Q405.8438,154.5 406.4688,153.9219 L406.4688,156.6406 Z " fill="#000000"/><text fill="#000000" font-family="sans-serif" font-size="14" lengthAdjust="spacing" textLength="54.5029" x="417.5" y="155.8467">FromInt</text></g><!--class FromParent__class--><g class="entity" data-entity="FromParent__class" data-source-line="41" data-uid="ent0016" id="entity_FromParent__class"><rect fill="#F1F1F1" height="32" rx="2.5" ry="2.5" style="stroke:#181818;stroke-width:0.5;" width="113.7646" x="375" y="185"/><ellipse cx="390" cy="201" fill="#ADD1B2" rx="11" ry="11" style="stroke:#181818;stroke-width:1;"/><path d="M392.9688,206.6406 Q392.3906,206.9375 391.75,207.0781 Q391.1094,207.2344 390.4063,207.2344 Q387.9063,207.2344 386.5781,205.5938 Q385.2656,203.9375 385.2656,200.8125 Q385.2656,197.6875 386.5781,196.0313 Q387.9063,194.375 390.4063,194.375 Q391.1094,194.375 391.75,194.5313 Q392.4063,194.6875 392.9688,194.9844 L392.9688,197.7031 Q392.3438,197.125 391.75,196.8594 Q391.1563,196.5781 390.5313,196.5781 Q389.1875,196.5781 388.5,197.6563 Q387.8125,198.7188 387.8125,200.8125 Q387.8125,202.9063 388.5,203.9844 Q389.1875,205.0469 390.5313,205.0469 Q391.1563,205.0469 391.75,204.7813 Q392.3438,204.5 392.9688,203.9219 L392.9688,206.6406 Z " fill="#000000"/><text fill="#000000" font-family="sans-serif" font-size="14" lengthAdjust="spacing" textLength="81.7646" x="404" y="205.8467">FromParent</text></g><!--class FromString__class--><g class="entity" data-entity="FromString__class" data-source-line="45" data-uid="ent0018" id="entity_FromString__class"><rect fill="#F1F1F1" height="32" rx="2.5" ry="2.5" style="stroke:#181818;stroke-width:0.5;" width="109.793" x="377" y="235"/><ellipse cx="392" cy="251" fill="#ADD1B2" rx="11" ry="11" style="stroke:#181818;stroke-width:1;"/><path d="M394.9688,256.6406 Q394.3906,256.9375 393.75,257.0781 Q393.1094,257.2344 392.4063,257.2344 Q389.9063,257.2344 388.5781,255.5938 Q387.2656,253.9375 387.2656,250.8125 Q387.2656,247.6875 388.5781,246.0313 Q389.9063,244.375 392.4063,244.375 Q393.1094,244.375 393.75,244.5313 Q394.4063,244.6875 394.9688,244.9844 L394.9688,247.7031 Q394.3438,247.125 393.75,246.8594 Q393.1563,246.5781 392.5313,246.5781 Q391.1875,246.5781 390.5,247.6563 Q389.8125,248.7188 389.8125,250.8125 Q389.8125,252.9063 390.5,253.9844 Q391.1875,255.0469 392.5313,255.0469 Q393.1563,255.0469 393.75,254.7813 Q394.3438,254.5 394.9688,253.9219 L394.9688,256.6406 Z " fill="#000000"/><text fill="#000000" font-family="sans-serif" font-size="14" lengthAdjust="spacing" textLength="77.793" x="406" y="255.8467">FromString</text></g><!--class NotANumberError__class--><g class="entity" data-entity="NotANumberError__class" data-source-line="51" data-uid="ent0022" id="entity_NotANumberError__class"><rect fill="#F1F1F1" height="32" rx="2.5" ry="2.5" style="stroke:#181818;stroke-width:0.5;" width="157.0225" x="182" y="202"/><ellipse cx="197" cy="218" fill="#ADD1B2" rx="11" ry="11" style="stroke:#181818;stroke-width:1;"/><path d="M199.9688,223.6406 Q199.3906,223.9375 198.75,224.0781 Q198.1094,224.2344 197.4063,224.2344 Q194.9063,224.2344 193.5781,222.5938 Q192.2656,220.9375 192.2656,217.8125 Q192.2656,214.6875 193.5781,213.0313 Q194.9063,211.375 197.4063,211.375 Q198.1094,211.375 198.75,211.5313 Q199.4063,211.6875 199.9688,211.9844 L199.9688,214.7031 Q199.3438,214.125 198.75,213.8594 Q198.1563,213.5781 197.5313,213.5781 Q196.1875,213.5781 195.5,214.6563 Q194.8125,215.7188 194.8125,217.8125 Q194.8125,219.9063 195.5,220.9844 Q196.1875,222.0469 197.5313,222.0469 Q198.1563,222.0469 198.75,221.7813 Q199.3438,221.5 199.9688,220.9219 L199.9688,223.6406 Z " fill="#000000"/><text fill="#000000" font-family="sans-serif" font-size="14" lengthAdjust="spacing" textLength="125.0225" x="211" y="222.8467">NotANumberError</text></g><g class="link" data-entity-1="Stringable__class" data-entity-2="Number__class" data-uid="lnk6" id="link_Stringable__class_Number__class"><polygon fill="none" points="128.3221,151,146.3221,157,146.3221,145,128.3221,151" style="stroke:#516F42;stroke-width:1;"/><path d="M146.3221,151 C174.0496,151 189.9038,151 216.2744,151" fill="none" style="stroke:#516F42;stroke-width:1;stroke-dasharray:7,7;"/></g><g class="link" data-entity-1="Builder__interface" data-entity-2="FromFloat__class" data-uid="lnk13" id="link_Builder__interface_FromFloat__class"><polygon fill="none" points="301.6691,101,319.6691,107,319.6691,95,301.6691,101" style="stroke:#516F42;stroke-width:1;"/><path d="M319.6691,101 C343.2624,101 355.2995,101 380.4869,101" fill="none" style="stroke:#516F42;stroke-width:1;stroke-dasharray:7,7;"/></g><g class="link" data-entity-1="Builder__interface" data-entity-2="FromInt__class" data-uid="lnk15" id="link_Builder__interface_FromInt__class"><polygon fill="none" points="301.7628,109.4313,317.9838,119.2741,320.6453,107.573,301.7628,109.4313" style="stroke:#516F42;stroke-width:1;"/><path d="M319.3145,113.4236 C333.6831,116.6918 332.3765,116.6934 347,121 C360.8149,125.0685 375.6781,130.1402 389.0049,134.9492" fill="none" style="stroke:#516F42;stroke-width:1;stroke-dasharray:7,7;"/></g><g class="link" data-entity-1="Builder__interface" data-entity-2="FromParent__class" data-uid="lnk17" id="link_Builder__interface_FromParent__class"><polygon fill="none" points="301.8415,102.3663,318.7083,111.0561,320.5488,99.1981,301.8415,102.3663" style="stroke:#516F42;stroke-width:1;"/><path d="M319.6285,105.1271 C335.3325,107.5645 334.6866,110.071 347,121 C366.4532,138.2661 348.8264,157.3918 367,176 C370.3339,179.4136 374.1884,182.3708 378.3195,184.9308" fill="none" style="stroke:#516F42;stroke-width:1;stroke-dasharray:7,7;"/></g><g class="link" data-entity-1="Builder__interface" data-entity-2="FromString__class" data-uid="lnk19" id="link_Builder__interface_FromString__class"><polygon fill="none" points="301.881,101.2874,318.8937,109.6879,320.5314,97.8002,301.881,101.2874" style="stroke:#516F42;stroke-width:1;"/><path d="M319.7126,103.744 C335.8047,105.961 335.3916,108.8988 347,121 C379.8863,155.2824 336.6398,189.4617 367,226 C369.8207,229.3947 373.1629,232.3303 376.8171,234.8687" fill="none" style="stroke:#516F42;stroke-width:1;stroke-dasharray:7,7;"/></g><g class="link" data-entity-1="ArithmeticError__class" data-entity-2="NotANumberError__class" data-uid="lnk23" id="link_ArithmeticError__class_NotANumberError__class"><polygon fill="none" points="146.2556,218,164.2556,224,164.2556,212,146.2556,218" style="stroke:#516F42;stroke-width:1;"/><path d="M164.2556,218 C175.8518,218 169.9518,218 181.7443,218" fill="none" style="stroke:#516F42;stroke-width:1;"/></g><!--SRC=[rPNFQXin4CRlUegf-mGjJKyXOBiEv91Gckk2cQncTqKapIADcvYGTw_s_zQfmIJf8JffDCFt_KP2qgSwOEaGBEvv9n0T2NfK013lZQyne8Db2FomPii1Ffzz-Lvy-_ft7dCnlutiLnmqXLCACRyl0- -yxekBTlox-8T1nrwVB3xKd-8HAzJyO7m91Tf8IXrFJHbhFCc-9k0W5QlAQ09ojUp1aRkZ49MbGa0OWYah0Mq29JRsAfA0HqUnnfnkgP6JX9PbIXal58gq38jR2SaMxomj02DCuNQRMumHpi-17bEvHmiN5q_gMOsYS8qXvpNxQ4fhECjMwskKQfFAlIODJqt_09tEucRNyBOktNHmICEusf8ZBp7nlMJeX9vVx_qBlMRNUdVJcVTxY9SqQ9Vq9kaiknhEPcXxTbYhdR6wtyD-ljrE-LVvzJhneAdBmExICafhDaR7pkpqhaR7EVaxWoUt4JlDFmRqJmmqu-x2Zu7UtTWHlGl_EteFi0n6glIJc7oJlexkSXoilVqjoxBDOqvryx0URi0Dox9xq2R_WxLfAwZLQxRX2EAilpy0]--></g></svg>