<svg xmlns="http://www.w3.org/2000/svg" xmlns:xlink="http://www.w3.org/1999/xlink" contentStyleType="text/css" data-diagram-type="CLASS" height="307px" preserveAspectRatio="none" style="width:583px;height:307px;background:#FFFFFF;" version="1.1" viewBox="0 0 583 307" width="583px" zoomAndPan="magnify"><defs/><g><!--cluster MarcoConsiglio--><g class="cluster" data-entity="MarcoConsiglio" data-source-line="17" data-uid="ent0005" id="cluster_MarcoConsiglio"><path d="M160.5,4 L281.9287,4 A3.75,3.75 0 0 1 284.4287,6.5 L291.4287,26.2969 L573.5,26.2969 A2.5,2.5 0 0 1 576,28.7969 L576,297.5 A2.5,2.5 0 0 1 573.5,300 L160.5,300 A2.5,2.5 0 0 1 158,297.5 L158,6.5 A2.5,2.5 0 0 1 160.5,4" fill="none" style="stroke:#000000;stroke-width:1.5;"/><line style="stroke:#000000;stroke-width:1.5;" x1="158" x2="291.4287" y1="26.2969" y2="26.2969"/><text fill="#000000" font-family="sans-serif" font-size="14" font-weight="bold" lengthAdjust="spacing" textLength="120.4287" x="162" y="18.9951">MarcoConsiglio</text></g><!--cluster BCMathExtended--><g class="cluster" data-entity="BCMathExtended" data-source-line="16" data-uid="ent0003" id="cluster_BCMathExtended"><path d="M168.5,31 L304.7695,31 A3.75,3.75 0 0 1 307.2695,33.5 L314.2695,53.2969 L565.5,53.2969 A2.5,2.5 0 0 1 568,55.7969 L568,289.5 A2.5,2.5 0 0 1 565.5,292 L168.5,292 A2.5,2.5 0 0 1 166,289.5 L166,33.5 A2.5,2.5 0 0 1 168.5,31" fill="none" style="stroke:#000000;stroke-width:1.5;"/><line style="stroke:#000000;stroke-width:1.5;" x1="166" x2="314.2695" y1="53.2969" y2="53.2969"/><text fill="#000000" font-family="sans-serif" font-size="14" font-weight="bold" lengthAdjust="spacing" textLength="135.2695" x="170" y="45.9951">BCMathExtended</text></g><!--cluster Interfaces--><g class="cluster" data-entity="Interfaces" data-source-line="24" data-uid="ent0008" id="cluster_Interfaces"><path d="M214,58 L294.9326,58 A3.75,3.75 0 0 1 297.4326,60.5 L304.4326,80.2969 L307,80.2969 A2.5,2.5 0 0 1 309.5,82.7969 L309.5,122.5 A2.5,2.5 0 0 1 307,125 L214,125 A2.5,2.5 0 0 1 211.5,122.5 L211.5,60.5 A2.5,2.5 0 0 1 214,58" fill="none" style="stroke:#000000;stroke-width:1.5;"/><line style="stroke:#000000;stroke-width:1.5;" x1="211.5" x2="304.4326" y1="80.2969" y2="80.2969"/><text fill="#000000" font-family="sans-serif" font-size="14" font-weight="bold" lengthAdjust="spacing" textLength="79.9326" x="215.5" y="72.9951">Interfaces</text></g><!--cluster Builders--><g class="cluster" data-entity="Builders" data-source-line="28" data-uid="ent0010" id="cluster_Builders"><path d="M369.5,58 L435.4893,58 A3.75,3.75 0 0 1 437.9893,60.5 L444.9893,80.2969 L557.5,80.2969 A2.5,2.5 0 0 1 560,82.7969 L560,272.5 A2.5,2.5 0 0 1 557.5,275 L369.5,275 A2.5,2.5 0 0 1 367,272.5 L367,60.5 A2.5,2.5 0 0 1 369.5,58" fill="none" style="stroke:#000000;stroke-width:1.5;"/><line style="stroke:#000000;stroke-width:1.5;" x1="367" x2="444.9893" y1="80.2969" y2="80.2969"/><text fill="#000000" font-family="sans-serif" font-size="14" font-weight="bold" lengthAdjust="spacing" textLength="64.9893" x="371" y="72.9951">Builders</text></g><!--cluster Exceptions--><g class="cluster" data-entity="Exceptions" data-source-line="46" data-uid="ent0020" id="cluster_Exceptions"><path d="M176.5,175 L263.3184,175 A3.75,3.75 0 0 1 265.8184,177.5 L272.8184,197.2969 L344.5,197.2969 A2.5,2.5 0 0 1 347,199.7969 L347,239.5 A2.5,2.5 0 0 1 344.5,242 L176.5,242 A2.5,2.5 0 0 1 174,239.5 L174,177.5 A2.5,2.5 0 0 1 176.5,175" fill="none" style="stroke:#000000;stroke-width:1.5;"/><line style="stroke:#000000;stroke-width:1.5;" x1="174" x2="272.8184" y1="197.2969" y2="197.2969"/><text fill="#000000" font-family="sans-serif" font-size="14" font-weight="bold" lengthAdjust="spacing" textLength="85.8184" x="178" y="189.9951">Exceptions</text></g><!--class Stringable__class--><g class="entity" data-entity="Stringable__class" data-source-line="14" data-uid="ent0002" id="entity_Stringable__class"><rect fill="#F1F1F1" height="40.2656" rx="2.5" ry="2.5" style="stroke:#181818;stroke-width:0.5;" width="103.75" x="24" y="131"/><ellipse cx="39" cy="151.1328" fill="#B4A7E5" rx="11" ry="11" style="stroke:#181818;stroke-width:1;"/><path d="M34.9219,146.8984 L34.9219,144.7422 L42.3125,144.7422 L42.3125,146.8984 L39.8438,146.8984 L39.8438,154.9766 L42.3125,154.9766 L42.3125,157.1328 L34.9219,157.1328 L34.9219,154.9766 L37.3906,154.9766 L37.3906,146.8984 L34.9219,146.8984 Z " fill="#000000"/><text fill="#000000" font-family="sans-serif" font-size="12" font-style="italic" lengthAdjust="spacing" textLength="64.4824" x="56.6338" y="147.1387">&#171;external&#187;</text><text fill="#000000" font-family="sans-serif" font-size="14" font-style="italic" lengthAdjust="spacing" textLength="71.75" x="53" y="162.9639">Stringable</text></g><!--class ArithmeticError__class--><g class="entity" data-entity="ArithmeticError__class" data-source-line="44" data-uid="ent0019" id="entity_ArithmeticError__class"><rect fill="#F1F1F1" height="40.2656" rx="2.5" ry="2.5" style="stroke:#181818;stroke-width:0.5;" width="139.5908" x="6" y="198"/><ellipse cx="21" cy="218.1328" fill="#ADD1B2" rx="11" ry="11" style="stroke:#181818;stroke-width:1;"/><path d="M23.9688,223.7734 Q23.3906,224.0703 22.75,224.2109 Q22.1094,224.3672 21.4063,224.3672 Q18.9063,224.3672 17.5781,222.7266 Q16.2656,221.0703 16.2656,217.9453 Q16.2656,214.8203 17.5781,213.1641 Q18.9063,211.5078 21.4063,211.5078 Q22.1094,211.5078 22.75,211.6641 Q23.4063,211.8203 23.9688,212.1172 L23.9688,214.8359 Q23.3438,214.2578 22.75,213.9922 Q22.1563,213.7109 21.5313,213.7109 Q20.1875,213.7109 19.5,214.7891 Q18.8125,215.8516 18.8125,217.9453 Q18.8125,220.0391 19.5,221.1172 Q20.1875,222.1797 21.5313,222.1797 Q22.1563,222.1797 22.75,221.9141 Q23.3438,221.6328 23.9688,221.0547 L23.9688,223.7734 Z " fill="#000000"/><text fill="#000000" font-family="sans-serif" font-size="12" font-style="italic" lengthAdjust="spacing" textLength="64.4824" x="56.5542" y="214.1387">&#171;external&#187;</text><text fill="#000000" font-family="sans-serif" font-size="14" lengthAdjust="spacing" textLength="107.5908" x="35" y="229.9639">ArithmeticError</text></g><!--class Number__class--><g class="entity" data-entity="Number__class" data-source-line="17" data-uid="ent0004" id="entity_Number__class"><rect fill="#F1F1F1" height="32" rx="2.5" ry="2.5" style="stroke:#181818;stroke-width:0.5;" width="88.2393" x="216.5" y="135"/><ellipse cx="231.5" cy="151" fill="#ADD1B2" rx="11" ry="11" style="stroke:#181818;stroke-width:1;"/><path d="M234.4688,156.6406 Q233.8906,156.9375 233.25,157.0781 Q232.6094,157.2344 231.9063,157.2344 Q229.4063,157.2344 228.0781,155.5938 Q226.7656,153.9375 226.7656,150.8125 Q226.7656,147.6875 228.0781,146.0313 Q229.4063,144.375 231.9063,144.375 Q232.6094,144.375 233.25,144.5313 Q233.9063,144.6875 234.4688,144.9844 L234.4688,147.7031 Q233.8438,147.125 233.25,146.8594 Q232.6563,146.5781 232.0313,146.5781 Q230.6875,146.5781 230,147.6563 Q229.3125,148.7188 229.3125,150.8125 Q229.3125,152.9063 230,153.9844 Q230.6875,155.0469 232.0313,155.0469 Q232.6563,155.0469 233.25,154.7813 Q233.8438,154.5 234.4688,153.9219 L234.4688,156.6406 Z " fill="#000000"/><text fill="#000000" font-family="sans-serif" font-size="14" lengthAdjust="spacing" textLength="56.2393" x="245.5" y="155.8467">Number</text></g><!--class Random__class--><g class="entity" data-entity="Random__class" data-source-line="21" data-uid="ent0007" id="entity_Random__class"><rect fill="#F1F1F1" height="32" rx="2.5" ry="2.5" style="stroke:#181818;stroke-width:0.5;" width="90.2695" x="215.5" y="252"/><ellipse cx="230.5" cy="268" fill="#ADD1B2" rx="11" ry="11" style="stroke:#181818;stroke-width:1;"/><path d="M233.4688,273.6406 Q232.8906,273.9375 232.25,274.0781 Q231.6094,274.2344 230.9063,274.2344 Q228.4063,274.2344 227.0781,272.5938 Q225.7656,270.9375 225.7656,267.8125 Q225.7656,264.6875 227.0781,263.0313 Q228.4063,261.375 230.9063,261.375 Q231.6094,261.375 232.25,261.5313 Q232.9063,261.6875 233.4688,261.9844 L233.4688,264.7031 Q232.8438,264.125 232.25,263.8594 Q231.6563,263.5781 231.0313,263.5781 Q229.6875,263.5781 229,264.6563 Q228.3125,265.7188 228.3125,267.8125 Q228.3125,269.9063 229,270.9844 Q229.6875,272.0469 231.0313,272.0469 Q231.6563,272.0469 232.25,271.7813 Q232.8438,271.5 233.4688,270.9219 L233.4688,273.6406 Z " fill="#000000"/><text fill="#000000" font-family="sans-serif" font-size="14" lengthAdjust="spacing" textLength="58.2695" x="244.5" y="272.8467">Random</text></g><!--class Builder__interface--><g class="entity" data-entity="Builder__interface" data-source-line="25" data-uid="ent0009" id="entity_Builder__interface"><rect fill="#F1F1F1" height="32" rx="2.5" ry="2.5" style="stroke:#181818;stroke-width:0.5;" width="81.5127" x="219.5" y="85"/><ellipse cx="234.5" cy="101" fill="#B4A7E5" rx="11" ry="11" style="stroke:#181818;stroke-width:1;"/><path d="M230.4219,96.7656 L230.4219,94.6094 L237.8125,94.6094 L237.8125,96.7656 L235.3438,96.7656 L235.3438,104.8438 L237.8125,104.8438 L237.8125,107 L230.4219,107 L230.4219,104.8438 L232.8906,104.8438 L232.8906,96.7656 L230.4219,96.7656 Z " fill="#000000"/><text fill="#000000" font-family="sans-serif" font-size="14" font-style="italic" lengthAdjust="spacing" textLength="49.5127" x="248.5" y="105.8467">Builder</text></g><!--class FromBcMathNumber__class--><g class="entity" data-entity="FromBcMathNumber__class" data-source-line="29" data-uid="ent0011" id="entity_FromBcMathNumber__class"><rect fill="#F1F1F1" height="32" rx="2.5" ry="2.5" style="stroke:#181818;stroke-width:0.5;" width="176.5732" x="375" y="85"/><ellipse cx="390" cy="101" fill="#ADD1B2" rx="11" ry="11" style="stroke:#181818;stroke-width:1;"/><path d="M392.9688,106.6406 Q392.3906,106.9375 391.75,107.0781 Q391.1094,107.2344 390.4063,107.2344 Q387.9063,107.2344 386.5781,105.5938 Q385.2656,103.9375 385.2656,100.8125 Q385.2656,97.6875 386.5781,96.0313 Q387.9063,94.375 390.4063,94.375 Q391.1094,94.375 391.75,94.5313 Q392.4063,94.6875 392.9688,94.9844 L392.9688,97.7031 Q392.3438,97.125 391.75,96.8594 Q391.1563,96.5781 390.5313,96.5781 Q389.1875,96.5781 388.5,97.6563 Q387.8125,98.7188 387.8125,100.8125 Q387.8125,102.9063 388.5,103.9844 Q389.1875,105.0469 390.5313,105.0469 Q391.1563,105.0469 391.75,104.7813 Q392.3438,104.5 392.9688,103.9219 L392.9688,106.6406 Z " fill="#000000"/><text fill="#000000" font-family="sans-serif" font-size="14" lengthAdjust="spacing" textLength="144.5732" x="404" y="105.8467">FromBcMathNumber</text></g><!--class FromFloat__class--><g class="entity" data-entity="FromFloat__class" data-source-line="33" data-uid="ent0013" id="entity_FromFloat__class"><rect fill="#F1F1F1" height="32" rx="2.5" ry="2.5" style="stroke:#181818;stroke-width:0.5;" width="102.5879" x="412" y="135"/><ellipse cx="427" cy="151" fill="#ADD1B2" rx="11" ry="11" style="stroke:#181818;stroke-width:1;"/><path d="M429.9688,156.6406 Q429.3906,156.9375 428.75,157.0781 Q428.1094,157.2344 427.4063,157.2344 Q424.9063,157.2344 423.5781,155.5938 Q422.2656,153.9375 422.2656,150.8125 Q422.2656,147.6875 423.5781,146.0313 Q424.9063,144.375 427.4063,144.375 Q428.1094,144.375 428.75,144.5313 Q429.4063,144.6875 429.9688,144.9844 L429.9688,147.7031 Q429.3438,147.125 428.75,146.8594 Q428.1563,146.5781 427.5313,146.5781 Q426.1875,146.5781 425.5,147.6563 Q424.8125,148.7188 424.8125,150.8125 Q424.8125,152.9063 425.5,153.9844 Q426.1875,155.0469 427.5313,155.0469 Q428.1563,155.0469 428.75,154.7813 Q429.3438,154.5 429.9688,153.9219 L429.9688,156.6406 Z " fill="#000000"/><text fill="#000000" font-family="sans-serif" font-size="14" lengthAdjust="spacing" textLength="70.5879" x="441" y="155.8467">FromFloat</text></g><!--class FromInt__class--><g class="entity" data-entity="FromInt__class" data-source-line="37" data-uid="ent0015" id="entity_FromInt__class"><rect fill="#F1F1F1" height="32" rx="2.5" ry="2.5" style="stroke:#181818;stroke-width:0.5;" width="86.5029" x="420" y="185"/><ellipse cx="435" cy="201" fill="#ADD1B2" rx="11" ry="11" style="stroke:#181818;stroke-width:1;"/><path d="M437.9688,206.6406 Q437.3906,206.9375 436.75,207.0781 Q436.1094,207.2344 435.4063,207.2344 Q432.9063,207.2344 431.5781,205.5938 Q430.2656,203.9375 430.2656,200.8125 Q430.2656,197.6875 431.5781,196.0313 Q432.9063,194.375 435.4063,194.375 Q436.1094,194.375 436.75,194.5313 Q437.4063,194.6875 437.9688,194.9844 L437.9688,197.7031 Q437.3438,197.125 436.75,196.8594 Q436.1563,196.5781 435.5313,196.5781 Q434.1875,196.5781 433.5,197.6563 Q432.8125,198.7188 432.8125,200.8125 Q432.8125,202.9063 433.5,203.9844 Q434.1875,205.0469 435.5313,205.0469 Q436.1563,205.0469 436.75,204.7813 Q437.3438,204.5 437.9688,203.9219 L437.9688,206.6406 Z " fill="#000000"/><text fill="#000000" font-family="sans-serif" font-size="14" lengthAdjust="spacing" textLength="54.5029" x="449" y="205.8467">FromInt</text></g><!--class FromString__class--><g class="entity" data-entity="FromString__class" data-source-line="41" data-uid="ent0017" id="entity_FromString__class"><rect fill="#F1F1F1" height="32" rx="2.5" ry="2.5" style="stroke:#181818;stroke-width:0.5;" width="109.793" x="408.5" y="235"/><ellipse cx="423.5" cy="251" fill="#ADD1B2" rx="11" ry="11" style="stroke:#181818;stroke-width:1;"/><path d="M426.4688,256.6406 Q425.8906,256.9375 425.25,257.0781 Q424.6094,257.2344 423.9063,257.2344 Q421.4063,257.2344 420.0781,255.5938 Q418.7656,253.9375 418.7656,250.8125 Q418.7656,247.6875 420.0781,246.0313 Q421.4063,244.375 423.9063,244.375 Q424.6094,244.375 425.25,244.5313 Q425.9063,244.6875 426.4688,244.9844 L426.4688,247.7031 Q425.8438,247.125 425.25,246.8594 Q424.6563,246.5781 424.0313,246.5781 Q422.6875,246.5781 422,247.6563 Q421.3125,248.7188 421.3125,250.8125 Q421.3125,252.9063 422,253.9844 Q422.6875,255.0469 424.0313,255.0469 Q424.6563,255.0469 425.25,254.7813 Q425.8438,254.5 426.4688,253.9219 L426.4688,256.6406 Z " fill="#000000"/><text fill="#000000" font-family="sans-serif" font-size="14" lengthAdjust="spacing" textLength="77.793" x="437.5" y="255.8467">FromString</text></g><!--class NotANumberError__class--><g class="entity" data-entity="NotANumberError__class" data-source-line="47" data-uid="ent0021" id="entity_NotANumberError__class"><rect fill="#F1F1F1" height="32" rx="2.5" ry="2.5" style="stroke:#181818;stroke-width:0.5;" width="157.0225" x="182" y="202"/><ellipse cx="197" cy="218" fill="#ADD1B2" rx="11" ry="11" style="stroke:#181818;stroke-width:1;"/><path d="M199.9688,223.6406 Q199.3906,223.9375 198.75,224.0781 Q198.1094,224.2344 197.4063,224.2344 Q194.9063,224.2344 193.5781,222.5938 Q192.2656,220.9375 192.2656,217.8125 Q192.2656,214.6875 193.5781,213.0313 Q194.9063,211.375 197.4063,211.375 Q198.1094,211.375 198.75,211.5313 Q199.4063,211.6875 199.9688,211.9844 L199.9688,214.7031 Q199.3438,214.125 198.75,213.8594 Q198.1563,213.5781 197.5313,213.5781 Q196.1875,213.5781 195.5,214.6563 Q194.8125,215.7188 194.8125,217.8125 Q194.8125,219.9063 195.5,220.9844 Q196.1875,222.0469 197.5313,222.0469 Q198.1563,222.0469 198.75,221.7813 Q199.3438,221.5 199.9688,220.9219 L199.9688,223.6406 Z " fill="#000000"/><text fill="#000000" font-family="sans-serif" font-size="14" lengthAdjust="spacing" textLength="125.0225" x="211" y="222.8467">NotANumberError</text></g><g class="link" data-entity-1="Stringable__class" data-entity-2="Number__class" data-uid="lnk6" id="link_Stringable__class_Number__class"><polygon fill="none" points="128.3221,151,146.3221,157,146.3221,145,128.3221,151" style="stroke:#516F42;stroke-width:1;"/><path d="M146.3221,151 C174.0496,151 189.9038,151 216.2744,151" fill="none" style="stroke:#516F42;stroke-width:1;stroke-dasharray:7,7;"/></g><g class="link" data-entity-1="Builder__interface" data-entity-2="FromBcMathNumber__class" data-uid="lnk12" id="link_Builder__interface_FromBcMathNumber__class"><polygon fill="none" points="301.6923,101,319.6923,107,319.6923,95,301.6923,101" style="stroke:#516F42;stroke-width:1;"/><path d="M319.6923,101 C340.6575,101 349.1792,101 374.6069,101" fill="none" style="stroke:#516F42;stroke-width:1;stroke-dasharray:7,7;"/></g><g class="link" data-entity-1="Builder__interface" data-entity-2="FromFloat__class" data-uid="lnk14" id="link_Builder__interface_FromFloat__class"><polygon fill="none" points="301.5658,110.1599,317.7391,120.0807,320.4569,108.3925,301.5658,110.1599" style="stroke:#516F42;stroke-width:1;"/><path d="M319.098,114.2366 C333.448,117.5734 332.1996,117.3474 347,121 C368.3208,126.2618 391.7875,132.3096 411.9677,137.5904" fill="none" style="stroke:#516F42;stroke-width:1;stroke-dasharray:7,7;"/></g><g class="link" data-entity-1="Builder__interface" data-entity-2="FromInt__class" data-uid="lnk16" id="link_Builder__interface_FromInt__class"><polygon fill="none" points="301.8415,102.3663,318.7083,111.0561,320.5488,99.1981,301.8415,102.3663" style="stroke:#516F42;stroke-width:1;"/><path d="M319.6285,105.1271 C335.3325,107.5645 334.6866,110.071 347,121 C366.4532,138.2661 347.7751,158.4801 367,176 C381.3143,189.0448 401.5989,195.4444 419.7942,198.5237" fill="none" style="stroke:#516F42;stroke-width:1;stroke-dasharray:7,7;"/></g><g class="link" data-entity-1="Builder__interface" data-entity-2="FromString__class" data-uid="lnk18" id="link_Builder__interface_FromString__class"><polygon fill="none" points="301.881,101.2874,318.8937,109.6879,320.5314,97.8002,301.881,101.2874" style="stroke:#516F42;stroke-width:1;"/><path d="M319.7126,103.744 C335.8047,105.961 335.3916,108.8988 347,121 C379.8863,155.2824 334.5665,191.289 367,226 C377.7649,237.5208 393.1264,243.9898 408.3904,247.5501" fill="none" style="stroke:#516F42;stroke-width:1;stroke-dasharray:7,7;"/></g><g class="link" data-entity-1="ArithmeticError__class" data-entity-2="NotANumberError__class" data-uid="lnk22" id="link_ArithmeticError__class_NotANumberError__class"><polygon fill="none" points="146.2556,218,164.2556,224,164.2556,212,146.2556,218" style="stroke:#516F42;stroke-width:1;"/><path d="M164.2556,218 C175.8518,218 169.9518,218 181.7443,218" fill="none" style="stroke:#516F42;stroke-width:1;"/></g><!--SRC=[rLJDRjim3BxhARZq2JfiEnK5aYm5TcWFxTL0m5gqBLGI3ObP6nHzzye_iJsl0R9kErGdYYI-7qBYfpfWwH0ixdad41q9UbG041-Chp6WWsK8_BXcom7Elfv_Axvy_hMEkPYVHlOh3fh2AOsOFvI1TrxtpKLxtcx-Rj2nroU37_fFuOWLQduqleG2RIIbZfV6YZMUP5yJS92ALMKq0RbQzk38tLE8ob8X80p1b9M0De6IDlOgae17Hx76dEweWPCaBSkKCbue52aDYpi9YHRlBIq08upNxJQt62DSN00zfNQF5YuldzMB6a3X6aFEQ_RHbDPmbgtMroZL9hLxJHgU6_y07SxYPjVeRLcwyC2GZd6r9KTUOjBtkuOEwENztBVeDRkMkmidt7yEdcK_3WCyQ9jCTBKpLlT6-tYx7UllukjnuipMLM2toflMoN3doMDZFjtZm3_ryOzjN5b66VItjuyXFB4DibFyCKHtNspGtLt_k_HUm38OgTBgD_acxVhkqSvoVxzyicppb5FTRCBv06vObjtN6FbdkN4KrE8rOpWYSUBl5G00]--></g></svg>