<svg xmlns="http://www.w3.org/2000/svg" xmlns:xlink="http://www.w3.org/1999/xlink" contentStyleType="text/css" data-diagram-type="CLASS" height="407px" preserveAspectRatio="none" style="width:628px;height:407px;background:#FFFFFF;" version="1.1" viewBox="0 0 628 407" width="628px" zoomAndPan="magnify"><defs/><g><!--cluster MarcoConsiglio--><g class="cluster" data-entity="MarcoConsiglio" data-source-line="17" data-uid="ent0005" id="cluster_MarcoConsiglio"><path d="M160.5,4 L281.9287,4 A3.75,3.75 0 0 1 284.4287,6.5 L291.4287,26.2969 L618.5,26.2969 A2.5,2.5 0 0 1 621,28.7969 L621,397.5 A2.5,2.5 0 0 1 618.5,400 L160.5,400 A2.5,2.5 0 0 1 158,397.5 L158,6.5 A2.5,2.5 0 0 1 160.5,4" fill="none" style="stroke:#000000;stroke-width:1.5;"/><line style="stroke:#000000;stroke-width:1.5;" x1="158" x2="291.4287" y1="26.2969" y2="26.2969"/><text fill="#000000" font-family="sans-serif" font-size="14" font-weight="bold" lengthAdjust="spacing" textLength="120.4287" x="162" y="18.9951">MarcoConsiglio</text></g><!--cluster BCMathExtended--><g class="cluster" data-entity="BCMathExtended" data-source-line="16" data-uid="ent0003" id="cluster_BCMathExtended"><path d="M168.5,31 L304.7695,31 A3.75,3.75 0 0 1 307.2695,33.5 L314.2695,53.2969 L610.5,53.2969 A2.5,2.5 0 0 1 613,55.7969 L613,389.5 A2.5,2.5 0 0 1 610.5,392 L168.5,392 A2.5,2.5 0 0 1 166,389.5 L166,33.5 A2.5,2.5 0 0 1 168.5,31" fill="none" style="stroke:#000000;stroke-width:1.5;"/><line style="stroke:#000000;stroke-width:1.5;" x1="166" x2="314.2695" y1="53.2969" y2="53.2969"/><text fill="#000000" font-family="sans-serif" font-size="14" font-weight="bold" lengthAdjust="spacing" textLength="135.2695" x="170" y="45.9951">BCMathExtended</text></g><!--cluster Interfaces--><g class="cluster" data-entity="Interfaces" data-source-line="24" data-uid="ent0008" id="cluster_Interfaces"><path d="M236.5,58 L317.4326,58 A3.75,3.75 0 0 1 319.9326,60.5 L326.9326,80.2969 L329.5,80.2969 A2.5,2.5 0 0 1 332,82.7969 L332,122.5 A2.5,2.5 0 0 1 329.5,125 L236.5,125 A2.5,2.5 0 0 1 234,122.5 L234,60.5 A2.5,2.5 0 0 1 236.5,58" fill="none" style="stroke:#000000;stroke-width:1.5;"/><line style="stroke:#000000;stroke-width:1.5;" x1="234" x2="326.9326" y1="80.2969" y2="80.2969"/><text fill="#000000" font-family="sans-serif" font-size="14" font-weight="bold" lengthAdjust="spacing" textLength="79.9326" x="238" y="72.9951">Interfaces</text></g><!--cluster Builders--><g class="cluster" data-entity="Builders" data-source-line="28" data-uid="ent0010" id="cluster_Builders"><path d="M414.5,58 L480.4893,58 A3.75,3.75 0 0 1 482.9893,60.5 L489.9893,80.2969 L602.5,80.2969 A2.5,2.5 0 0 1 605,82.7969 L605,272.5 A2.5,2.5 0 0 1 602.5,275 L414.5,275 A2.5,2.5 0 0 1 412,272.5 L412,60.5 A2.5,2.5 0 0 1 414.5,58" fill="none" style="stroke:#000000;stroke-width:1.5;"/><line style="stroke:#000000;stroke-width:1.5;" x1="412" x2="489.9893" y1="80.2969" y2="80.2969"/><text fill="#000000" font-family="sans-serif" font-size="14" font-weight="bold" lengthAdjust="spacing" textLength="64.9893" x="416" y="72.9951">Builders</text></g><!--cluster Exceptions--><g class="cluster" data-entity="Exceptions" data-source-line="46" data-uid="ent0020" id="cluster_Exceptions"><path d="M176.5,175 L263.3184,175 A3.75,3.75 0 0 1 265.8184,177.5 L272.8184,197.2969 L389.5,197.2969 A2.5,2.5 0 0 1 392,199.7969 L392,339.5 A2.5,2.5 0 0 1 389.5,342 L176.5,342 A2.5,2.5 0 0 1 174,339.5 L174,177.5 A2.5,2.5 0 0 1 176.5,175" fill="none" style="stroke:#000000;stroke-width:1.5;"/><line style="stroke:#000000;stroke-width:1.5;" x1="174" x2="272.8184" y1="197.2969" y2="197.2969"/><text fill="#000000" font-family="sans-serif" font-size="14" font-weight="bold" lengthAdjust="spacing" textLength="85.8184" x="178" y="189.9951">Exceptions</text></g><!--class Stringable__class--><g class="entity" data-entity="Stringable__class" data-source-line="14" data-uid="ent0002" id="entity_Stringable__class"><rect fill="#F1F1F1" height="40.2656" rx="2.5" ry="2.5" style="stroke:#181818;stroke-width:0.5;" width="103.75" x="24" y="131"/><ellipse cx="39" cy="151.1328" fill="#B4A7E5" rx="11" ry="11" style="stroke:#181818;stroke-width:1;"/><path d="M34.9219,146.8984 L34.9219,144.7422 L42.3125,144.7422 L42.3125,146.8984 L39.8438,146.8984 L39.8438,154.9766 L42.3125,154.9766 L42.3125,157.1328 L34.9219,157.1328 L34.9219,154.9766 L37.3906,154.9766 L37.3906,146.8984 L34.9219,146.8984 Z " fill="#000000"/><text fill="#000000" font-family="sans-serif" font-size="12" font-style="italic" lengthAdjust="spacing" textLength="64.4824" x="56.6338" y="147.1387">&#171;external&#187;</text><text fill="#000000" font-family="sans-serif" font-size="14" font-style="italic" lengthAdjust="spacing" textLength="71.75" x="53" y="162.9639">Stringable</text></g><!--class ArithmeticError__class--><g class="entity" data-entity="ArithmeticError__class" data-source-line="44" data-uid="ent0019" id="entity_ArithmeticError__class"><rect fill="#F1F1F1" height="40.2656" rx="2.5" ry="2.5" style="stroke:#181818;stroke-width:0.5;" width="139.5908" x="6" y="248"/><ellipse cx="21" cy="268.1328" fill="#ADD1B2" rx="11" ry="11" style="stroke:#181818;stroke-width:1;"/><path d="M23.9688,273.7734 Q23.3906,274.0703 22.75,274.2109 Q22.1094,274.3672 21.4063,274.3672 Q18.9063,274.3672 17.5781,272.7266 Q16.2656,271.0703 16.2656,267.9453 Q16.2656,264.8203 17.5781,263.1641 Q18.9063,261.5078 21.4063,261.5078 Q22.1094,261.5078 22.75,261.6641 Q23.4063,261.8203 23.9688,262.1172 L23.9688,264.8359 Q23.3438,264.2578 22.75,263.9922 Q22.1563,263.7109 21.5313,263.7109 Q20.1875,263.7109 19.5,264.7891 Q18.8125,265.8516 18.8125,267.9453 Q18.8125,270.0391 19.5,271.1172 Q20.1875,272.1797 21.5313,272.1797 Q22.1563,272.1797 22.75,271.9141 Q23.3438,271.6328 23.9688,271.0547 L23.9688,273.7734 Z " fill="#000000"/><text fill="#000000" font-family="sans-serif" font-size="12" font-style="italic" lengthAdjust="spacing" textLength="64.4824" x="56.5542" y="264.1387">&#171;external&#187;</text><text fill="#000000" font-family="sans-serif" font-size="14" lengthAdjust="spacing" textLength="107.5908" x="35" y="279.9639">ArithmeticError</text></g><!--class Number__class--><g class="entity" data-entity="Number__class" data-source-line="17" data-uid="ent0004" id="entity_Number__class"><rect fill="#F1F1F1" height="32" rx="2.5" ry="2.5" style="stroke:#181818;stroke-width:0.5;" width="88.2393" x="239" y="135"/><ellipse cx="254" cy="151" fill="#ADD1B2" rx="11" ry="11" style="stroke:#181818;stroke-width:1;"/><path d="M256.9688,156.6406 Q256.3906,156.9375 255.75,157.0781 Q255.1094,157.2344 254.4063,157.2344 Q251.9063,157.2344 250.5781,155.5938 Q249.2656,153.9375 249.2656,150.8125 Q249.2656,147.6875 250.5781,146.0313 Q251.9063,144.375 254.4063,144.375 Q255.1094,144.375 255.75,144.5313 Q256.4063,144.6875 256.9688,144.9844 L256.9688,147.7031 Q256.3438,147.125 255.75,146.8594 Q255.1563,146.5781 254.5313,146.5781 Q253.1875,146.5781 252.5,147.6563 Q251.8125,148.7188 251.8125,150.8125 Q251.8125,152.9063 252.5,153.9844 Q253.1875,155.0469 254.5313,155.0469 Q255.1563,155.0469 255.75,154.7813 Q256.3438,154.5 256.9688,153.9219 L256.9688,156.6406 Z " fill="#000000"/><text fill="#000000" font-family="sans-serif" font-size="14" lengthAdjust="spacing" textLength="56.2393" x="268" y="155.8467">Number</text></g><!--class Random__class--><g class="entity" data-entity="Random__class" data-source-line="21" data-uid="ent0007" id="entity_Random__class"><rect fill="#F1F1F1" height="32" rx="2.5" ry="2.5" style="stroke:#181818;stroke-width:0.5;" width="90.2695" x="238" y="352"/><ellipse cx="253" cy="368" fill="#ADD1B2" rx="11" ry="11" style="stroke:#181818;stroke-width:1;"/><path d="M255.9688,373.6406 Q255.3906,373.9375 254.75,374.0781 Q254.1094,374.2344 253.4063,374.2344 Q250.9063,374.2344 249.5781,372.5938 Q248.2656,370.9375 248.2656,367.8125 Q248.2656,364.6875 249.5781,363.0313 Q250.9063,361.375 253.4063,361.375 Q254.1094,361.375 254.75,361.5313 Q255.4063,361.6875 255.9688,361.9844 L255.9688,364.7031 Q255.3438,364.125 254.75,363.8594 Q254.1563,363.5781 253.5313,363.5781 Q252.1875,363.5781 251.5,364.6563 Q250.8125,365.7188 250.8125,367.8125 Q250.8125,369.9063 251.5,370.9844 Q252.1875,372.0469 253.5313,372.0469 Q254.1563,372.0469 254.75,371.7813 Q255.3438,371.5 255.9688,370.9219 L255.9688,373.6406 Z " fill="#000000"/><text fill="#000000" font-family="sans-serif" font-size="14" lengthAdjust="spacing" textLength="58.2695" x="267" y="372.8467">Random</text></g><!--class Builder__interface--><g class="entity" data-entity="Builder__interface" data-source-line="25" data-uid="ent0009" id="entity_Builder__interface"><rect fill="#F1F1F1" height="32" rx="2.5" ry="2.5" style="stroke:#181818;stroke-width:0.5;" width="81.5127" x="242" y="85"/><ellipse cx="257" cy="101" fill="#B4A7E5" rx="11" ry="11" style="stroke:#181818;stroke-width:1;"/><path d="M252.9219,96.7656 L252.9219,94.6094 L260.3125,94.6094 L260.3125,96.7656 L257.8438,96.7656 L257.8438,104.8438 L260.3125,104.8438 L260.3125,107 L252.9219,107 L252.9219,104.8438 L255.3906,104.8438 L255.3906,96.7656 L252.9219,96.7656 Z " fill="#000000"/><text fill="#000000" font-family="sans-serif" font-size="14" font-style="italic" lengthAdjust="spacing" textLength="49.5127" x="271" y="105.8467">Builder</text></g><!--class FromBcMathNumber__class--><g class="entity" data-entity="FromBcMathNumber__class" data-source-line="29" data-uid="ent0011" id="entity_FromBcMathNumber__class"><rect fill="#F1F1F1" height="32" rx="2.5" ry="2.5" style="stroke:#181818;stroke-width:0.5;" width="176.5732" x="420" y="85"/><ellipse cx="435" cy="101" fill="#ADD1B2" rx="11" ry="11" style="stroke:#181818;stroke-width:1;"/><path d="M437.9688,106.6406 Q437.3906,106.9375 436.75,107.0781 Q436.1094,107.2344 435.4063,107.2344 Q432.9063,107.2344 431.5781,105.5938 Q430.2656,103.9375 430.2656,100.8125 Q430.2656,97.6875 431.5781,96.0313 Q432.9063,94.375 435.4063,94.375 Q436.1094,94.375 436.75,94.5313 Q437.4063,94.6875 437.9688,94.9844 L437.9688,97.7031 Q437.3438,97.125 436.75,96.8594 Q436.1563,96.5781 435.5313,96.5781 Q434.1875,96.5781 433.5,97.6563 Q432.8125,98.7188 432.8125,100.8125 Q432.8125,102.9063 433.5,103.9844 Q434.1875,105.0469 435.5313,105.0469 Q436.1563,105.0469 436.75,104.7813 Q437.3438,104.5 437.9688,103.9219 L437.9688,106.6406 Z " fill="#000000"/><text fill="#000000" font-family="sans-serif" font-size="14" lengthAdjust="spacing" textLength="144.5732" x="449" y="105.8467">FromBcMathNumber</text></g><!--class FromFloat__class--><g class="entity" data-entity="FromFloat__class" data-source-line="33" data-uid="ent0013" id="entity_FromFloat__class"><rect fill="#F1F1F1" height="32" rx="2.5" ry="2.5" style="stroke:#181818;stroke-width:0.5;" width="102.5879" x="457" y="135"/><ellipse cx="472" cy="151" fill="#ADD1B2" rx="11" ry="11" style="stroke:#181818;stroke-width:1;"/><path d="M474.9688,156.6406 Q474.3906,156.9375 473.75,157.0781 Q473.1094,157.2344 472.4063,157.2344 Q469.9063,157.2344 468.5781,155.5938 Q467.2656,153.9375 467.2656,150.8125 Q467.2656,147.6875 468.5781,146.0313 Q469.9063,144.375 472.4063,144.375 Q473.1094,144.375 473.75,144.5313 Q474.4063,144.6875 474.9688,144.9844 L474.9688,147.7031 Q474.3438,147.125 473.75,146.8594 Q473.1563,146.5781 472.5313,146.5781 Q471.1875,146.5781 470.5,147.6563 Q469.8125,148.7188 469.8125,150.8125 Q469.8125,152.9063 470.5,153.9844 Q471.1875,155.0469 472.5313,155.0469 Q473.1563,155.0469 473.75,154.7813 Q474.3438,154.5 474.9688,153.9219 L474.9688,156.6406 Z " fill="#000000"/><text fill="#000000" font-family="sans-serif" font-size="14" lengthAdjust="spacing" textLength="70.5879" x="486" y="155.8467">FromFloat</text></g><!--class FromInt__class--><g class="entity" data-entity="FromInt__class" data-source-line="37" data-uid="ent0015" id="entity_FromInt__class"><rect fill="#F1F1F1" height="32" rx="2.5" ry="2.5" style="stroke:#181818;stroke-width:0.5;" width="86.5029" x="465" y="185"/><ellipse cx="480" cy="201" fill="#ADD1B2" rx="11" ry="11" style="stroke:#181818;stroke-width:1;"/><path d="M482.9688,206.6406 Q482.3906,206.9375 481.75,207.0781 Q481.1094,207.2344 480.4063,207.2344 Q477.9063,207.2344 476.5781,205.5938 Q475.2656,203.9375 475.2656,200.8125 Q475.2656,197.6875 476.5781,196.0313 Q477.9063,194.375 480.4063,194.375 Q481.1094,194.375 481.75,194.5313 Q482.4063,194.6875 482.9688,194.9844 L482.9688,197.7031 Q482.3438,197.125 481.75,196.8594 Q481.1563,196.5781 480.5313,196.5781 Q479.1875,196.5781 478.5,197.6563 Q477.8125,198.7188 477.8125,200.8125 Q477.8125,202.9063 478.5,203.9844 Q479.1875,205.0469 480.5313,205.0469 Q481.1563,205.0469 481.75,204.7813 Q482.3438,204.5 482.9688,203.9219 L482.9688,206.6406 Z " fill="#000000"/><text fill="#000000" font-family="sans-serif" font-size="14" lengthAdjust="spacing" textLength="54.5029" x="494" y="205.8467">FromInt</text></g><!--class FromString__class--><g class="entity" data-entity="FromString__class" data-source-line="41" data-uid="ent0017" id="entity_FromString__class"><rect fill="#F1F1F1" height="32" rx="2.5" ry="2.5" style="stroke:#181818;stroke-width:0.5;" width="109.793" x="453.5" y="235"/><ellipse cx="468.5" cy="251" fill="#ADD1B2" rx="11" ry="11" style="stroke:#181818;stroke-width:1;"/><path d="M471.4688,256.6406 Q470.8906,256.9375 470.25,257.0781 Q469.6094,257.2344 468.9063,257.2344 Q466.4063,257.2344 465.0781,255.5938 Q463.7656,253.9375 463.7656,250.8125 Q463.7656,247.6875 465.0781,246.0313 Q466.4063,244.375 468.9063,244.375 Q469.6094,244.375 470.25,244.5313 Q470.9063,244.6875 471.4688,244.9844 L471.4688,247.7031 Q470.8438,247.125 470.25,246.8594 Q469.6563,246.5781 469.0313,246.5781 Q467.6875,246.5781 467,247.6563 Q466.3125,248.7188 466.3125,250.8125 Q466.3125,252.9063 467,253.9844 Q467.6875,255.0469 469.0313,255.0469 Q469.6563,255.0469 470.25,254.7813 Q470.8438,254.5 471.4688,253.9219 L471.4688,256.6406 Z " fill="#000000"/><text fill="#000000" font-family="sans-serif" font-size="14" lengthAdjust="spacing" textLength="77.793" x="482.5" y="255.8467">FromString</text></g><!--class IndeterminateFormError__class--><g class="entity" data-entity="IndeterminateFormError__class" data-source-line="47" data-uid="ent0021" id="entity_IndeterminateFormError__class"><rect fill="#F1F1F1" height="32" rx="2.5" ry="2.5" style="stroke:#181818;stroke-width:0.5;" width="202.1328" x="182" y="202"/><ellipse cx="197" cy="218" fill="#ADD1B2" rx="11" ry="11" style="stroke:#181818;stroke-width:1;"/><path d="M199.9688,223.6406 Q199.3906,223.9375 198.75,224.0781 Q198.1094,224.2344 197.4063,224.2344 Q194.9063,224.2344 193.5781,222.5938 Q192.2656,220.9375 192.2656,217.8125 Q192.2656,214.6875 193.5781,213.0313 Q194.9063,211.375 197.4063,211.375 Q198.1094,211.375 198.75,211.5313 Q199.4063,211.6875 199.9688,211.9844 L199.9688,214.7031 Q199.3438,214.125 198.75,213.8594 Q198.1563,213.5781 197.5313,213.5781 Q196.1875,213.5781 195.5,214.6563 Q194.8125,215.7188 194.8125,217.8125 Q194.8125,219.9063 195.5,220.9844 Q196.1875,222.0469 197.5313,222.0469 Q198.1563,222.0469 198.75,221.7813 Q199.3438,221.5 199.9688,220.9219 L199.9688,223.6406 Z " fill="#000000"/><text fill="#000000" font-family="sans-serif" font-size="14" lengthAdjust="spacing" textLength="170.1328" x="211" y="222.8467">IndeterminateFormError</text></g><!--class InfiniteError__class--><g class="entity" data-entity="InfiniteError__class" data-source-line="51" data-uid="ent0023" id="entity_InfiniteError__class"><rect fill="#F1F1F1" height="32" rx="2.5" ry="2.5" style="stroke:#181818;stroke-width:0.5;" width="115.3643" x="225.5" y="252"/><ellipse cx="240.5" cy="268" fill="#ADD1B2" rx="11" ry="11" style="stroke:#181818;stroke-width:1;"/><path d="M243.4688,273.6406 Q242.8906,273.9375 242.25,274.0781 Q241.6094,274.2344 240.9063,274.2344 Q238.4063,274.2344 237.0781,272.5938 Q235.7656,270.9375 235.7656,267.8125 Q235.7656,264.6875 237.0781,263.0313 Q238.4063,261.375 240.9063,261.375 Q241.6094,261.375 242.25,261.5313 Q242.9063,261.6875 243.4688,261.9844 L243.4688,264.7031 Q242.8438,264.125 242.25,263.8594 Q241.6563,263.5781 241.0313,263.5781 Q239.6875,263.5781 239,264.6563 Q238.3125,265.7188 238.3125,267.8125 Q238.3125,269.9063 239,270.9844 Q239.6875,272.0469 241.0313,272.0469 Q241.6563,272.0469 242.25,271.7813 Q242.8438,271.5 243.4688,270.9219 L243.4688,273.6406 Z " fill="#000000"/><text fill="#000000" font-family="sans-serif" font-size="14" lengthAdjust="spacing" textLength="83.3643" x="254.5" y="272.8467">InfiniteError</text></g><!--class NotANumberError__class--><g class="entity" data-entity="NotANumberError__class" data-source-line="55" data-uid="ent0025" id="entity_NotANumberError__class"><rect fill="#F1F1F1" height="32" rx="2.5" ry="2.5" style="stroke:#181818;stroke-width:0.5;" width="157.0225" x="204.5" y="302"/><ellipse cx="219.5" cy="318" fill="#ADD1B2" rx="11" ry="11" style="stroke:#181818;stroke-width:1;"/><path d="M222.4688,323.6406 Q221.8906,323.9375 221.25,324.0781 Q220.6094,324.2344 219.9063,324.2344 Q217.4063,324.2344 216.0781,322.5938 Q214.7656,320.9375 214.7656,317.8125 Q214.7656,314.6875 216.0781,313.0313 Q217.4063,311.375 219.9063,311.375 Q220.6094,311.375 221.25,311.5313 Q221.9063,311.6875 222.4688,311.9844 L222.4688,314.7031 Q221.8438,314.125 221.25,313.8594 Q220.6563,313.5781 220.0313,313.5781 Q218.6875,313.5781 218,314.6563 Q217.3125,315.7188 217.3125,317.8125 Q217.3125,319.9063 218,320.9844 Q218.6875,322.0469 220.0313,322.0469 Q220.6563,322.0469 221.25,321.7813 Q221.8438,321.5 222.4688,320.9219 L222.4688,323.6406 Z " fill="#000000"/><text fill="#000000" font-family="sans-serif" font-size="14" lengthAdjust="spacing" textLength="125.0225" x="233.5" y="322.8467">NotANumberError</text></g><g class="link" data-entity-1="Stringable__class" data-entity-2="Number__class" data-uid="lnk6" id="link_Stringable__class_Number__class"><polygon fill="none" points="128.2013,151,146.2013,157,146.2013,145,128.2013,151" style="stroke:#516F42;stroke-width:1;"/><path d="M146.2013,151 C180.2375,151 206.4414,151 238.7195,151" fill="none" style="stroke:#516F42;stroke-width:1;stroke-dasharray:7,7;"/></g><g class="link" data-entity-1="Builder__interface" data-entity-2="FromBcMathNumber__class" data-uid="lnk12" id="link_Builder__interface_FromBcMathNumber__class"><polygon fill="none" points="324.2154,101,342.2154,107,342.2154,95,324.2154,101" style="stroke:#516F42;stroke-width:1;"/><path d="M342.2154,101 C368.8591,101 386.8623,101 419.906,101" fill="none" style="stroke:#516F42;stroke-width:1;stroke-dasharray:7,7;"/></g><g class="link" data-entity-1="Builder__interface" data-entity-2="FromFloat__class" data-uid="lnk14" id="link_Builder__interface_FromFloat__class"><polygon fill="none" points="324.1429,107.7344,340.8265,116.7708,342.9116,104.9533,324.1429,107.7344" style="stroke:#516F42;stroke-width:1;"/><path d="M341.869,110.862 C362.2617,114.4602 369.6621,116.0372 392,121 C398.6488,122.4771 428.9426,130.3525 456.8357,137.6632" fill="none" style="stroke:#516F42;stroke-width:1;stroke-dasharray:7,7;"/></g><g class="link" data-entity-1="Builder__interface" data-entity-2="FromInt__class" data-uid="lnk16" id="link_Builder__interface_FromInt__class"><polygon fill="none" points="324.0291,99.171,341.7255,106.0149,342.2925,94.0283,324.0291,99.171" style="stroke:#516F42;stroke-width:1;"/><path d="M342.009,100.0216 C364.352,101.0786 373.3721,105.228 392,121 C411.8508,137.8074 392.7751,158.4801 412,176 C426.3143,189.0448 446.5989,195.4444 464.7942,198.5237" fill="none" style="stroke:#516F42;stroke-width:1;stroke-dasharray:7,7;"/></g><g class="link" data-entity-1="Builder__interface" data-entity-2="FromString__class" data-uid="lnk18" id="link_Builder__interface_FromString__class"><polygon fill="none" points="324.2273,98.0661,342.0625,104.5395,342.3795,92.5437,324.2273,98.0661" style="stroke:#516F42;stroke-width:1;"/><path d="M342.221,98.5416 C365.0564,99.1451 374.4941,103.5833 392,121 C425.6773,154.5056 379.5665,191.289 412,226 C422.7649,237.5208 438.1264,243.9898 453.3904,247.5501" fill="none" style="stroke:#516F42;stroke-width:1;stroke-dasharray:7,7;"/></g><g class="link" data-entity-1="ArithmeticError__class" data-entity-2="IndeterminateFormError__class" data-uid="lnk22" id="link_ArithmeticError__class_IndeterminateFormError__class"><polygon fill="none" points="139.6168,247.9932,158.573,248.8059,155.2694,237.2696,139.6168,247.9932" style="stroke:#516F42;stroke-width:1;"/><path d="M156.9212,243.0377 C163.1092,241.2657 152.0097,244.5242 158,243 C170.4504,239.8321 183.6859,236.8065 196.6973,234.0236" fill="none" style="stroke:#516F42;stroke-width:1;"/></g><g class="link" data-entity-1="ArithmeticError__class" data-entity-2="InfiniteError__class" data-uid="lnk24" id="link_ArithmeticError__class_InfiniteError__class"><polygon fill="none" points="146.1179,268,164.1179,274,164.1179,262,146.1179,268" style="stroke:#516F42;stroke-width:1;"/><path d="M164.1179,268 C189.9226,268 200.8961,268 225.4391,268" fill="none" style="stroke:#516F42;stroke-width:1;"/></g><g class="link" data-entity-1="ArithmeticError__class" data-entity-2="NotANumberError__class" data-uid="lnk26" id="link_ArithmeticError__class_NotANumberError__class"><polygon fill="none" points="139.6168,288.0068,155.2694,298.7304,158.573,287.1941,139.6168,288.0068" style="stroke:#516F42;stroke-width:1;"/><path d="M156.9212,292.9623 C163.1092,294.7343 152.0097,291.4758 158,293 C172.898,296.7907 188.9199,300.3775 204.3371,303.5886" fill="none" style="stroke:#516F42;stroke-width:1;"/></g><!--SRC=[rPJFRjim3CRlUWekUu8Dsqv5WIHBW1xQmter4B0MRGkLH4DYrWP5tttodzXUrXHPjc6eJn99VD-FjCrtTS3I8LZSyLOWEXBqg00WtXjVOq07yn3uOScM0xp__E5ByUdZptdCnNmtibjmq1HEASJylWoyzRelBjhdvUAl1XrxVRBulluKZrYXvWVZIoZGHbBgU6hCMED9TZK11wbOLKOJaAjb1uxS7OMeB1K2mX1CMGbe4oYniLUH13mwYZNcT4kDd2IqB5FAUA5Gf33CRYKaMxopD0ECC5utcznYZ71n0VIOoZrQkBnyKizg48Lh33alsKTJMiDPjbXUerIhLEurQNXg-WVeT6OtsuQtTUcEUuVq65TRSkGb9hvV6JgXv_Ezlw7Nx5hlxZZn_dtnBBlQ3t3FDfdeOckixXljpvlDc3_BhzU91ssj0xj5tfHEXdiOF3RcqtiS_ATz_EKsrfPH1lxszZR0azk0dSvl0xhxnGRkxlhFqNk0UJ1IfTLlybNQzTr7Un3xy-MJPQl7dEfc4nuEu2hbawOp7eNM7Do8yN9g70orwirGZW2VzQ9U8IsCDq9Jm4dalt7TiCoxvJAI7SJEO_i1]--></g></svg>