<svg xmlns="http://www.w3.org/2000/svg" xmlns:xlink="http://www.w3.org/1999/xlink" contentStyleType="text/css" data-diagram-type="CLASS" height="330px" preserveAspectRatio="none" style="width:415px;height:330px;background:#FFFFFF;" version="1.1" viewBox="0 0 415 330" width="415px" zoomAndPan="magnify"><defs/><g><!--cluster MarcoConsiglio--><g class="cluster" data-entity="MarcoConsiglio" data-source-line="17" data-uid="ent0005" id="cluster_MarcoConsiglio"><path d="M160.5,4 L281.9287,4 A3.75,3.75 0 0 1 284.4287,6.5 L291.4287,26.2969 L405.5,26.2969 A2.5,2.5 0 0 1 408,28.7969 L408,320.5 A2.5,2.5 0 0 1 405.5,323 L160.5,323 A2.5,2.5 0 0 1 158,320.5 L158,6.5 A2.5,2.5 0 0 1 160.5,4" fill="none" style="stroke:#000000;stroke-width:1.5;"/><line style="stroke:#000000;stroke-width:1.5;" x1="158" x2="291.4287" y1="26.2969" y2="26.2969"/><text fill="#000000" font-family="sans-serif" font-size="14" font-weight="bold" lengthAdjust="spacing" textLength="120.4287" x="162" y="18.9951">MarcoConsiglio</text></g><!--cluster BCMathExtended--><g class="cluster" data-entity="BCMathExtended" data-source-line="16" data-uid="ent0003" id="cluster_BCMathExtended"><path d="M168.5,31 L304.7695,31 A3.75,3.75 0 0 1 307.2695,33.5 L314.2695,53.2969 L397.5,53.2969 A2.5,2.5 0 0 1 400,55.7969 L400,312.5 A2.5,2.5 0 0 1 397.5,315 L168.5,315 A2.5,2.5 0 0 1 166,312.5 L166,33.5 A2.5,2.5 0 0 1 168.5,31" fill="none" style="stroke:#000000;stroke-width:1.5;"/><line style="stroke:#000000;stroke-width:1.5;" x1="166" x2="314.2695" y1="53.2969" y2="53.2969"/><text fill="#000000" font-family="sans-serif" font-size="14" font-weight="bold" lengthAdjust="spacing" textLength="135.2695" x="170" y="45.9951">BCMathExtended</text></g><!--cluster Exceptions--><g class="cluster" data-entity="Exceptions" data-source-line="26" data-uid="ent0009" id="cluster_Exceptions"><path d="M176.5,98 L263.3184,98 A3.75,3.75 0 0 1 265.8184,100.5 L272.8184,120.2969 L389.5,120.2969 A2.5,2.5 0 0 1 392,122.7969 L392,262.5 A2.5,2.5 0 0 1 389.5,265 L176.5,265 A2.5,2.5 0 0 1 174,262.5 L174,100.5 A2.5,2.5 0 0 1 176.5,98" fill="none" style="stroke:#000000;stroke-width:1.5;"/><line style="stroke:#000000;stroke-width:1.5;" x1="174" x2="272.8184" y1="120.2969" y2="120.2969"/><text fill="#000000" font-family="sans-serif" font-size="14" font-weight="bold" lengthAdjust="spacing" textLength="85.8184" x="178" y="112.9951">Exceptions</text></g><!--class Stringable__class--><g class="entity" data-entity="Stringable__class" data-source-line="14" data-uid="ent0002" id="entity_Stringable__class"><rect fill="#F1F1F1" height="40.2656" rx="2.5" ry="2.5" style="stroke:#181818;stroke-width:0.5;" width="103.75" x="24" y="54"/><ellipse cx="39" cy="74.1328" fill="#B4A7E5" rx="11" ry="11" style="stroke:#181818;stroke-width:1;"/><path d="M34.9219,69.8984 L34.9219,67.7422 L42.3125,67.7422 L42.3125,69.8984 L39.8438,69.8984 L39.8438,77.9766 L42.3125,77.9766 L42.3125,80.1328 L34.9219,80.1328 L34.9219,77.9766 L37.3906,77.9766 L37.3906,69.8984 L34.9219,69.8984 Z " fill="#000000"/><text fill="#000000" font-family="sans-serif" font-size="12" font-style="italic" lengthAdjust="spacing" textLength="64.4824" x="56.6338" y="70.1387">&#171;external&#187;</text><text fill="#000000" font-family="sans-serif" font-size="14" font-style="italic" lengthAdjust="spacing" textLength="71.75" x="53" y="85.9639">Stringable</text></g><!--class ArithmeticError__class--><g class="entity" data-entity="ArithmeticError__class" data-source-line="24" data-uid="ent0008" id="entity_ArithmeticError__class"><rect fill="#F1F1F1" height="40.2656" rx="2.5" ry="2.5" style="stroke:#181818;stroke-width:0.5;" width="139.5908" x="6" y="171"/><ellipse cx="21" cy="191.1328" fill="#ADD1B2" rx="11" ry="11" style="stroke:#181818;stroke-width:1;"/><path d="M23.9688,196.7734 Q23.3906,197.0703 22.75,197.2109 Q22.1094,197.3672 21.4063,197.3672 Q18.9063,197.3672 17.5781,195.7266 Q16.2656,194.0703 16.2656,190.9453 Q16.2656,187.8203 17.5781,186.1641 Q18.9063,184.5078 21.4063,184.5078 Q22.1094,184.5078 22.75,184.6641 Q23.4063,184.8203 23.9688,185.1172 L23.9688,187.8359 Q23.3438,187.2578 22.75,186.9922 Q22.1563,186.7109 21.5313,186.7109 Q20.1875,186.7109 19.5,187.7891 Q18.8125,188.8516 18.8125,190.9453 Q18.8125,193.0391 19.5,194.1172 Q20.1875,195.1797 21.5313,195.1797 Q22.1563,195.1797 22.75,194.9141 Q23.3438,194.6328 23.9688,194.0547 L23.9688,196.7734 Z " fill="#000000"/><text fill="#000000" font-family="sans-serif" font-size="12" font-style="italic" lengthAdjust="spacing" textLength="64.4824" x="56.5542" y="187.1387">&#171;external&#187;</text><text fill="#000000" font-family="sans-serif" font-size="14" lengthAdjust="spacing" textLength="107.5908" x="35" y="202.9639">ArithmeticError</text></g><!--class Number__class--><g class="entity" data-entity="Number__class" data-source-line="17" data-uid="ent0004" id="entity_Number__class"><rect fill="#F1F1F1" height="32" rx="2.5" ry="2.5" style="stroke:#181818;stroke-width:0.5;" width="88.2393" x="239" y="58"/><ellipse cx="254" cy="74" fill="#ADD1B2" rx="11" ry="11" style="stroke:#181818;stroke-width:1;"/><path d="M256.9688,79.6406 Q256.3906,79.9375 255.75,80.0781 Q255.1094,80.2344 254.4063,80.2344 Q251.9063,80.2344 250.5781,78.5938 Q249.2656,76.9375 249.2656,73.8125 Q249.2656,70.6875 250.5781,69.0313 Q251.9063,67.375 254.4063,67.375 Q255.1094,67.375 255.75,67.5313 Q256.4063,67.6875 256.9688,67.9844 L256.9688,70.7031 Q256.3438,70.125 255.75,69.8594 Q255.1563,69.5781 254.5313,69.5781 Q253.1875,69.5781 252.5,70.6563 Q251.8125,71.7188 251.8125,73.8125 Q251.8125,75.9063 252.5,76.9844 Q253.1875,78.0469 254.5313,78.0469 Q255.1563,78.0469 255.75,77.7813 Q256.3438,77.5 256.9688,76.9219 L256.9688,79.6406 Z " fill="#000000"/><text fill="#000000" font-family="sans-serif" font-size="14" lengthAdjust="spacing" textLength="56.2393" x="268" y="78.8467">Number</text></g><!--class Random__class--><g class="entity" data-entity="Random__class" data-source-line="21" data-uid="ent0007" id="entity_Random__class"><rect fill="#F1F1F1" height="32" rx="2.5" ry="2.5" style="stroke:#181818;stroke-width:0.5;" width="90.2695" x="238" y="275"/><ellipse cx="253" cy="291" fill="#ADD1B2" rx="11" ry="11" style="stroke:#181818;stroke-width:1;"/><path d="M255.9688,296.6406 Q255.3906,296.9375 254.75,297.0781 Q254.1094,297.2344 253.4063,297.2344 Q250.9063,297.2344 249.5781,295.5938 Q248.2656,293.9375 248.2656,290.8125 Q248.2656,287.6875 249.5781,286.0313 Q250.9063,284.375 253.4063,284.375 Q254.1094,284.375 254.75,284.5313 Q255.4063,284.6875 255.9688,284.9844 L255.9688,287.7031 Q255.3438,287.125 254.75,286.8594 Q254.1563,286.5781 253.5313,286.5781 Q252.1875,286.5781 251.5,287.6563 Q250.8125,288.7188 250.8125,290.8125 Q250.8125,292.9063 251.5,293.9844 Q252.1875,295.0469 253.5313,295.0469 Q254.1563,295.0469 254.75,294.7813 Q255.3438,294.5 255.9688,293.9219 L255.9688,296.6406 Z " fill="#000000"/><text fill="#000000" font-family="sans-serif" font-size="14" lengthAdjust="spacing" textLength="58.2695" x="267" y="295.8467">Random</text></g><!--class IndeterminateFormError__class--><g class="entity" data-entity="IndeterminateFormError__class" data-source-line="27" data-uid="ent0010" id="entity_IndeterminateFormError__class"><rect fill="#F1F1F1" height="32" rx="2.5" ry="2.5" style="stroke:#181818;stroke-width:0.5;" width="202.1328" x="182" y="125"/><ellipse cx="197" cy="141" fill="#ADD1B2" rx="11" ry="11" style="stroke:#181818;stroke-width:1;"/><path d="M199.9688,146.6406 Q199.3906,146.9375 198.75,147.0781 Q198.1094,147.2344 197.4063,147.2344 Q194.9063,147.2344 193.5781,145.5938 Q192.2656,143.9375 192.2656,140.8125 Q192.2656,137.6875 193.5781,136.0313 Q194.9063,134.375 197.4063,134.375 Q198.1094,134.375 198.75,134.5313 Q199.4063,134.6875 199.9688,134.9844 L199.9688,137.7031 Q199.3438,137.125 198.75,136.8594 Q198.1563,136.5781 197.5313,136.5781 Q196.1875,136.5781 195.5,137.6563 Q194.8125,138.7188 194.8125,140.8125 Q194.8125,142.9063 195.5,143.9844 Q196.1875,145.0469 197.5313,145.0469 Q198.1563,145.0469 198.75,144.7813 Q199.3438,144.5 199.9688,143.9219 L199.9688,146.6406 Z " fill="#000000"/><text fill="#000000" font-family="sans-serif" font-size="14" lengthAdjust="spacing" textLength="170.1328" x="211" y="145.8467">IndeterminateFormError</text></g><!--class InfiniteError__class--><g class="entity" data-entity="InfiniteError__class" data-source-line="31" data-uid="ent0012" id="entity_InfiniteError__class"><rect fill="#F1F1F1" height="32" rx="2.5" ry="2.5" style="stroke:#181818;stroke-width:0.5;" width="115.3643" x="225.5" y="175"/><ellipse cx="240.5" cy="191" fill="#ADD1B2" rx="11" ry="11" style="stroke:#181818;stroke-width:1;"/><path d="M243.4688,196.6406 Q242.8906,196.9375 242.25,197.0781 Q241.6094,197.2344 240.9063,197.2344 Q238.4063,197.2344 237.0781,195.5938 Q235.7656,193.9375 235.7656,190.8125 Q235.7656,187.6875 237.0781,186.0313 Q238.4063,184.375 240.9063,184.375 Q241.6094,184.375 242.25,184.5313 Q242.9063,184.6875 243.4688,184.9844 L243.4688,187.7031 Q242.8438,187.125 242.25,186.8594 Q241.6563,186.5781 241.0313,186.5781 Q239.6875,186.5781 239,187.6563 Q238.3125,188.7188 238.3125,190.8125 Q238.3125,192.9063 239,193.9844 Q239.6875,195.0469 241.0313,195.0469 Q241.6563,195.0469 242.25,194.7813 Q242.8438,194.5 243.4688,193.9219 L243.4688,196.6406 Z " fill="#000000"/><text fill="#000000" font-family="sans-serif" font-size="14" lengthAdjust="spacing" textLength="83.3643" x="254.5" y="195.8467">InfiniteError</text></g><!--class NotANumberError__class--><g class="entity" data-entity="NotANumberError__class" data-source-line="35" data-uid="ent0014" id="entity_NotANumberError__class"><rect fill="#F1F1F1" height="32" rx="2.5" ry="2.5" style="stroke:#181818;stroke-width:0.5;" width="157.0225" x="204.5" y="225"/><ellipse cx="219.5" cy="241" fill="#ADD1B2" rx="11" ry="11" style="stroke:#181818;stroke-width:1;"/><path d="M222.4688,246.6406 Q221.8906,246.9375 221.25,247.0781 Q220.6094,247.2344 219.9063,247.2344 Q217.4063,247.2344 216.0781,245.5938 Q214.7656,243.9375 214.7656,240.8125 Q214.7656,237.6875 216.0781,236.0313 Q217.4063,234.375 219.9063,234.375 Q220.6094,234.375 221.25,234.5313 Q221.9063,234.6875 222.4688,234.9844 L222.4688,237.7031 Q221.8438,237.125 221.25,236.8594 Q220.6563,236.5781 220.0313,236.5781 Q218.6875,236.5781 218,237.6563 Q217.3125,238.7188 217.3125,240.8125 Q217.3125,242.9063 218,243.9844 Q218.6875,245.0469 220.0313,245.0469 Q220.6563,245.0469 221.25,244.7813 Q221.8438,244.5 222.4688,243.9219 L222.4688,246.6406 Z " fill="#000000"/><text fill="#000000" font-family="sans-serif" font-size="14" lengthAdjust="spacing" textLength="125.0225" x="233.5" y="245.8467">NotANumberError</text></g><g class="link" data-entity-1="Stringable__class" data-entity-2="Number__class" data-uid="lnk6" id="link_Stringable__class_Number__class"><polygon fill="none" points="128.2013,74,146.2013,80,146.2013,68,128.2013,74" style="stroke:#516F42;stroke-width:1;"/><path d="M146.2013,74 C180.2375,74 206.4414,74 238.7195,74" fill="none" style="stroke:#516F42;stroke-width:1;stroke-dasharray:7,7;"/></g><g class="link" data-entity-1="ArithmeticError__class" data-entity-2="IndeterminateFormError__class" data-uid="lnk11" id="link_ArithmeticError__class_IndeterminateFormError__class"><polygon fill="none" points="139.6168,170.9932,158.573,171.8059,155.2694,160.2696,139.6168,170.9932" style="stroke:#516F42;stroke-width:1;"/><path d="M156.9212,166.0377 C163.1092,164.2657 152.0097,167.5242 158,166 C170.4504,162.8321 183.6859,159.8065 196.6973,157.0236" fill="none" style="stroke:#516F42;stroke-width:1;"/></g><g class="link" data-entity-1="ArithmeticError__class" data-entity-2="InfiniteError__class" data-uid="lnk13" id="link_ArithmeticError__class_InfiniteError__class"><polygon fill="none" points="146.1179,191,164.1179,197,164.1179,185,146.1179,191" style="stroke:#516F42;stroke-width:1;"/><path d="M164.1179,191 C189.9226,191 200.8961,191 225.4391,191" fill="none" style="stroke:#516F42;stroke-width:1;"/></g><g class="link" data-entity-1="ArithmeticError__class" data-entity-2="NotANumberError__class" data-uid="lnk15" id="link_ArithmeticError__class_NotANumberError__class"><polygon fill="none" points="139.6168,211.0068,155.2694,221.7304,158.573,210.1941,139.6168,211.0068" style="stroke:#516F42;stroke-width:1;"/><path d="M156.9212,215.9623 C163.1092,217.7343 152.0097,214.4758 158,216 C172.898,219.7907 188.9199,223.3775 204.3371,226.5886" fill="none" style="stroke:#516F42;stroke-width:1;"/></g><!--SRC=[nPB1Jjn038RlynJkyWIjsfuGqh9T90vmW6iaP39EOZ4pZZnUO8LuToORQBPRGAljeNEQsB_-_nl7Nth5DY84NClA84SoJEW08Dznwb4nmbnL7XOIHE7enzUVpVTlV_QnDhvdMv-AUj9zX5ZVjIghv5_5pUQyB_x562NvlStVzFjav0wzF71geS6GoRcFMrCdS29RzmIYredhs1DGx6qDaU8jQNQ16WCJK6ux0yzAXKsIosIGC5BkiQPh6koie5MLSvoCj2bbc5sRbbYy3JG3p31ztjpK0NE6usEWno9F6E3avCazkz-cS85Qoq9IvZQmLDNfuWAjMnPvykJXQNW_mEWpkrmDl9kKyVgMK0x7Fb2aPBdm_Sqm6ZqVdds5oKlSP8_NhUp9_5KyLxQkh2RNoxAB8_5ExT-7KrNBnvhwuK_b7TZpqY-UaHCQdOd62UFzrlGOshWFG_m0-81HVahQS6AZRS2jod_ZkXIRZpisaUtK3cDx0G00]--></g></svg>